<svg xmlns="http://www.w3.org/2000/svg" viewBox="0 0 439.5 503.38"><defs><style>.cls-1{fill:#fff;}</style></defs><g id="Layer_2" data-name="Layer 2"><g id="Layer_1-2" data-name="Layer 1"><path class="cls-1" d="M394,486.2V447.91c-2-.1-3.75-.25-5.53-.25q-182.74,0-365.5-.11c-4.61,0-6,1.28-5.86,5.84.33,8.83.22,17.67.07,26.5-.08,4.74,1.94,6.4,6.62,6.38,25.33-.14,50.67-.09,76,0,7.25,0,11.75,4.55,9.67,10.34-.89,2.49-3.75,4.69-6.24,6.08-1.85,1-4.55.69-6.86.69q-35,.06-70,0a51.42,51.42,0,0,1-9.93-.84C7.06,500.57.69,492.85.07,483,0,481.14,0,479.3,0,477.46v-452C0,7.8,7.71,0,25.16,0h389.5c16.48,0,24.83,8.37,24.83,25q0,226.53,0,453.06c0,16.76-8.42,25.28-25.23,25.29q-141,.06-282,0a40.83,40.83,0,0,1-5.95-.51c-5-.76-7.42-3.64-7.27-8.43.13-4.51,3.12-7.68,7.83-8.12,1.82-.17,3.66-.08,5.5-.08H394Zm-330.29-55H413.8c6.88,0,8.27-1.48,8.27-8.61V26c0-8.74-.62-9.38-9.28-9.38h-349ZM45.83,16.83c-7,0-13.84,0-20.63,0-7.27,0-7.95.7-7.95,8q0,199.71,0,399.42c0,1.91.26,3.82.39,5.69H45.83ZM411.91,486.05c3.95-.29,9.49,2.13,9.89-3.71.78-11.4.23-22.89.23-34.7l-10.12-.94Z"/><path class="cls-1" d="M206.87,458.19h163c8.48,0,12.68,2.85,12.72,8.59s-4.33,8.79-12.63,8.79q-162.71,0-325.41,0a47.42,47.42,0,0,1-5.94-.49c-5.07-.67-8.31-3.88-8.36-8.18s3.82-8.15,8.72-8.61c1.82-.17,3.66-.09,5.49-.09Z"/><path class="cls-1" d="M305.42,295.15c8.66,0,17.33,0,26,0,5.92,0,9.75,3.33,9.89,8.32.14,4.69-3.16,8.36-9,8.5-16.65.4-33.3.42-49.95.43-6.16,0-11.48,1.78-15.73,6.27a14.35,14.35,0,0,0-.8,19.16,13.34,13.34,0,0,0,5.18,3.67c4.2,1.69,8,.37,10.69-3,2.51-3.15,1.22-6.08-1-9a8.44,8.44,0,0,1,1.35-12c3.58-2.78,8.35-2.42,11.71,1.19,4.91,5.26,7.3,11.55,6.27,18.75-1.58,11.1-8.38,18.07-18.83,21-11.38,3.19-21.17-.46-28.55-9.51-15.47-18.93-5-47.33,19.91-52.36,10.63-2.14,21.86-1.31,32.82-1.83Z"/><path class="cls-1" d="M169,166.11c8.49,0,17,.14,25.48,0,11.33-.23,19.31-9.12,17.66-19.41-1-6.06-5.45-10.55-11.09-10-2.81.29-6.44,1.91-7.77,4.09-1.09,1.8,0,5.68,1.29,8,2.6,4.8,2.49,9-1.28,12.08s-8.87,2.56-12.42-1.63c-6.25-7.38-7.79-15.78-3.93-24.67,4.25-9.78,12.31-14.67,22.72-15.37,11.62-.77,21.72,5.79,27,16.95a31.92,31.92,0,0,1-4.88,34.52,37.23,37.23,0,0,1-28.28,12.72c-16.31.19-32.64.09-48.95,0-6.77,0-10.52-3.23-10.52-8.68s3.71-8.61,10.47-8.64C152.67,166.09,160.83,166.12,169,166.11Z"/><path class="cls-1" d="M170.08,294.62c10.94.55,22.11-.08,32.77,2,13.06,2.51,22.3,11,25.73,24.35,3.16,12.37-.3,23.05-9.7,31.65a26.26,26.26,0,0,1-29.3,4.13c-9.62-4.79-15.57-12.48-14.27-23.47.61-5.1,3.51-10.22,6.41-14.64,2.48-3.78,8.28-3.75,11.54-1a8.11,8.11,0,0,1,1.41,11.6c-2.73,3.71-3.6,7.21,0,10.61s9,3.18,12.82.07c5.76-4.69,6.67-14.42,1.81-20.26-4.23-5.07-9.78-7.17-16.32-7.15-15.49.07-31,0-46.45,0a29.48,29.48,0,0,1-5-.22c-4.82-.84-7.75-4.47-7.5-9.06s3.58-7.87,8.55-7.95c9.15-.16,18.31-.05,27.47-.05Z"/><path class="cls-1" d="M305.75,182.64c-10.47,0-21.1,1.15-31.37-.29-13.18-1.85-23-9.68-27.19-22.8-4.09-12.88-1.07-24.47,9-33.56,7.77-7,17.06-8.79,27-5.19,9.3,3.37,15.29,9.82,16.78,19.88,1.12,7.61-1.34,14.14-6.62,19.57A8.45,8.45,0,0,1,282,161a8.68,8.68,0,0,1-1.85-11.27c3.61-6.31,3.42-9.29-.75-11.84-4.9-3-11.43-1.21-14.6,4.14-2.84,4.81-3.14,9.83-.31,14.71,3.67,6.3,9.5,9.26,16.6,9.33,15.82.16,31.64.05,47.47.06,1.33,0,2.67-.06,4,0,5,.31,8.74,4,8.82,8.5a9,9,0,0,1-8.15,8.66c-4.13.36-8.32.15-12.48.17h-15Z"/><path class="cls-1" d="M161.38,233.74c-4.07,7.77-8.25,15.48-12.16,23.32-1.35,2.72-3,3.86-6.1,3.87s-4.4-1.35-5.63-3.79a207.17,207.17,0,0,0-13.34-23.24v37.59H110.48V206.16a109.77,109.77,0,0,1,12.16.16c1.36.15,2.94,1.94,3.7,3.36,5.58,10.38,11,20.86,16.91,32.25,2.69-5.07,5-9.38,7.27-13.71s4.5-8.54,6.72-12.82c5.38-10.35,6.62-10.93,19-8.62v64.56H162.81V234Z"/><path class="cls-1" d="M256.67,233.21v38.16H243.34V206.59c5.73-.87,10.53-1.22,14.71,4.63,7.74,10.83,16.43,21,24.74,31.4.79,1,1.69,1.9,3.47,3.9v-11c0-6.5-.11-13,0-19.51.24-11.38-2.48-9.77,10.56-10,2.7,0,3.46,1.2,3.45,3.62q0,29.26,0,58.52c0,2.51-1,3.43-3.55,3.54-4.86.22-8.61-.52-11.94-5-8.65-11.6-18-22.67-27.09-34Z"/><path class="cls-1" d="M234.62,271.5H189V206.42H233c2.11,12,2,12.16-9.33,12.16H202.91v13.89h26.45v11.39H202.83v15.58H213c5.5,0,11,.25,16.48-.08,4.3-.25,5.65,1.45,5.2,5.48A59.19,59.19,0,0,0,234.62,271.5Z"/><path class="cls-1" d="M355.2,206.45h14.15c-.54,14.91,0,29.64-1.9,44s-13.3,22.3-27.76,22c-14.63-.32-25.62-8.92-27.21-23.48-1.45-13.18-.94-26.59-1.06-39.91,0-1,1.88-2,2.91-2.92.09-.08.32,0,.49,0,12.83.14,10.32-1.5,10.53,10,.19,9.5-.19,19,.34,28.49.64,11.57,9.22,17.77,19.34,14.58,5.89-1.85,9.86-8,10.05-16.32.23-10,.1-20,.12-30C355.21,210.89,355.2,208.93,355.2,206.45Z"/><path class="cls-1" d="M360.27,295.18c1.34,0,2.68-.09,4,0a8.48,8.48,0,0,1,1.06,16.86,33.44,33.44,0,0,1-8.94.18,8.76,8.76,0,0,1-8-8.73c.12-4.65,3.74-8.06,8.88-8.34,1-.06,2,0,3,0Z"/><path class="cls-1" d="M115.57,166.24a29.23,29.23,0,0,1,4.49,0,8.82,8.82,0,0,1,7.33,8.83,8.31,8.31,0,0,1-7.6,7.93,35.51,35.51,0,0,1-10.76-.46c-4-1-5.87-4.5-5.6-8.43a8.12,8.12,0,0,1,7.15-7.86A29.66,29.66,0,0,1,115.57,166.24Z"/><path class="cls-1" d="M360.68,166.16c1.17,0,2.34-.1,3.49,0,4.76.46,8.22,4,8.31,8.42a8.77,8.77,0,0,1-7.53,8.62,34.21,34.21,0,0,1-8.46.09,8.84,8.84,0,0,1-8.09-8.65c.07-4.56,3.75-8.14,8.79-8.51,1.16-.08,2.33,0,3.49,0Z"/><path class="cls-1" d="M115.52,295.08a35.72,35.72,0,0,1,5,.29c4,.76,7.23,4.73,6.78,8.67-.48,4.14-2.54,7.37-7,7.9a42,42,0,0,1-8.83,0c-5-.47-8.21-3.93-8.17-8.28,0-4.61,3.69-8.15,8.77-8.44,1.16-.07,2.33,0,3.5,0Z"/></g></g></svg>